<mxfile host="app.diagrams.net" modified="2023-11-15T07:52:17.944Z" agent="Mozilla/5.0 (Windows NT 10.0; Win64; x64) AppleWebKit/537.36 (KHTML, like Gecko) Chrome/116.0.0.0 Safari/537.36" etag="JXUSVfTY6p3oVNpy1flp" version="22.1.1" type="device">
  <diagram name="Trang-1" id="dqkja2WfaRUhVdcm1GmD">
    <mxGraphModel dx="1312" dy="588" grid="0" gridSize="10" guides="1" tooltips="1" connect="1" arrows="1" fold="1" page="1" pageScale="1" pageWidth="827" pageHeight="1169" math="0" shadow="0">
      <root>
        <mxCell id="0" />
        <mxCell id="1" parent="0" />
        <mxCell id="dCL8GWldi8alxJ6y3f6X-1" value="UseCase Quản lý điện nước" style="swimlane;whiteSpace=wrap;html=1;" vertex="1" parent="1">
          <mxGeometry x="243" y="411" width="376" height="390" as="geometry" />
        </mxCell>
        <mxCell id="dCL8GWldi8alxJ6y3f6X-3" value="Quản lý điện nước" style="ellipse;whiteSpace=wrap;html=1;" vertex="1" parent="dCL8GWldi8alxJ6y3f6X-1">
          <mxGeometry x="27" y="169" width="116" height="40" as="geometry" />
        </mxCell>
        <mxCell id="dCL8GWldi8alxJ6y3f6X-4" value="thêm tiền điện" style="ellipse;whiteSpace=wrap;html=1;" vertex="1" parent="dCL8GWldi8alxJ6y3f6X-1">
          <mxGeometry x="172" y="89" width="116" height="40" as="geometry" />
        </mxCell>
        <mxCell id="dCL8GWldi8alxJ6y3f6X-5" value="thêm tiền nước" style="ellipse;whiteSpace=wrap;html=1;" vertex="1" parent="dCL8GWldi8alxJ6y3f6X-1">
          <mxGeometry x="75" y="55" width="116" height="40" as="geometry" />
        </mxCell>
        <mxCell id="dCL8GWldi8alxJ6y3f6X-6" value="extend" style="endArrow=open;endSize=12;dashed=1;html=1;rounded=0;" edge="1" parent="dCL8GWldi8alxJ6y3f6X-1" source="dCL8GWldi8alxJ6y3f6X-5" target="dCL8GWldi8alxJ6y3f6X-3">
          <mxGeometry width="160" relative="1" as="geometry">
            <mxPoint x="256" y="242" as="sourcePoint" />
            <mxPoint x="145" y="211" as="targetPoint" />
          </mxGeometry>
        </mxCell>
        <mxCell id="dCL8GWldi8alxJ6y3f6X-7" value="extend" style="endArrow=open;endSize=12;dashed=1;html=1;rounded=0;" edge="1" parent="dCL8GWldi8alxJ6y3f6X-1" source="dCL8GWldi8alxJ6y3f6X-4" target="dCL8GWldi8alxJ6y3f6X-3">
          <mxGeometry width="160" relative="1" as="geometry">
            <mxPoint x="169" y="112" as="sourcePoint" />
            <mxPoint x="111" y="180" as="targetPoint" />
          </mxGeometry>
        </mxCell>
        <mxCell id="dCL8GWldi8alxJ6y3f6X-8" value="Đăng nhập" style="ellipse;whiteSpace=wrap;html=1;" vertex="1" parent="dCL8GWldi8alxJ6y3f6X-1">
          <mxGeometry x="215" y="181" width="132" height="43" as="geometry" />
        </mxCell>
        <mxCell id="dCL8GWldi8alxJ6y3f6X-9" value="include" style="endArrow=open;endSize=12;dashed=1;html=1;rounded=0;" edge="1" parent="dCL8GWldi8alxJ6y3f6X-1" source="dCL8GWldi8alxJ6y3f6X-3" target="dCL8GWldi8alxJ6y3f6X-8">
          <mxGeometry width="160" relative="1" as="geometry">
            <mxPoint x="100" y="199" as="sourcePoint" />
            <mxPoint x="260" y="199" as="targetPoint" />
          </mxGeometry>
        </mxCell>
        <mxCell id="dCL8GWldi8alxJ6y3f6X-10" value="Đăng xuất" style="ellipse;whiteSpace=wrap;html=1;direction=west;" vertex="1" parent="dCL8GWldi8alxJ6y3f6X-1">
          <mxGeometry x="51" y="262" width="130" height="36" as="geometry" />
        </mxCell>
        <mxCell id="dCL8GWldi8alxJ6y3f6X-11" value="include" style="endArrow=open;endSize=12;dashed=1;html=1;rounded=0;" edge="1" parent="dCL8GWldi8alxJ6y3f6X-1" source="dCL8GWldi8alxJ6y3f6X-10" target="dCL8GWldi8alxJ6y3f6X-8">
          <mxGeometry width="160" relative="1" as="geometry">
            <mxPoint x="100" y="199" as="sourcePoint" />
            <mxPoint x="260" y="199" as="targetPoint" />
          </mxGeometry>
        </mxCell>
        <mxCell id="dCL8GWldi8alxJ6y3f6X-2" value="Nhân viên điện nước" style="shape=umlActor;verticalLabelPosition=bottom;verticalAlign=top;html=1;outlineConnect=0;" vertex="1" parent="1">
          <mxGeometry x="124" y="605" width="30" height="60" as="geometry" />
        </mxCell>
        <mxCell id="dCL8GWldi8alxJ6y3f6X-12" value="" style="endArrow=none;html=1;rounded=0;" edge="1" parent="1" source="dCL8GWldi8alxJ6y3f6X-2" target="dCL8GWldi8alxJ6y3f6X-3">
          <mxGeometry width="50" height="50" relative="1" as="geometry">
            <mxPoint x="386" y="672" as="sourcePoint" />
            <mxPoint x="436" y="622" as="targetPoint" />
          </mxGeometry>
        </mxCell>
        <mxCell id="dCL8GWldi8alxJ6y3f6X-13" value="" style="endArrow=none;html=1;rounded=0;" edge="1" parent="1" source="dCL8GWldi8alxJ6y3f6X-2" target="dCL8GWldi8alxJ6y3f6X-10">
          <mxGeometry width="50" height="50" relative="1" as="geometry">
            <mxPoint x="386" y="672" as="sourcePoint" />
            <mxPoint x="436" y="622" as="targetPoint" />
          </mxGeometry>
        </mxCell>
      </root>
    </mxGraphModel>
  </diagram>
</mxfile>
